<svg xmlns="http://www.w3.org/2000/svg" xmlns:xlink="http://www.w3.org/1999/xlink" width="500" zoomAndPan="magnify" viewBox="0 0 375 374.999991" height="500" preserveAspectRatio="xMidYMid meet" version="1.0"><defs><clipPath id="1c6ec0ce5d"><path d="M 116.257812 116.257812 L 258.757812 116.257812 L 258.757812 258.757812 L 116.257812 258.757812 Z M 116.257812 116.257812 " clip-rule="nonzero"/></clipPath></defs><g clip-path="url(#1c6ec0ce5d)"><path fill="#912a1f" d="M 258.746094 187.5 C 258.746094 226.847656 226.847656 258.746094 187.5 258.746094 C 148.152344 258.746094 116.257812 226.847656 116.257812 187.5 C 116.257812 148.152344 148.152344 116.253906 187.5 116.253906 C 226.847656 116.253906 258.746094 148.152344 258.746094 187.5 " fill-opacity="1" fill-rule="nonzero"/></g><path fill="#ffffff" d="M 230.722656 192.84375 L 144.277344 192.84375 L 144.277344 182.15625 L 230.722656 182.15625 L 230.722656 192.84375 " fill-opacity="1" fill-rule="nonzero"/><path fill="#ffffff" d="M 187.5 165.058594 L 144.277344 165.058594 L 144.277344 154.371094 L 187.5 154.371094 L 187.5 165.058594 " fill-opacity="1" fill-rule="nonzero"/><path fill="#ffffff" d="M 230.722656 220.628906 L 187.5 220.628906 L 187.5 209.945312 L 230.722656 209.945312 L 230.722656 220.628906 " fill-opacity="1" fill-rule="nonzero"/></svg>