<?xml version="1.0" encoding="UTF-8"?><svg xmlns="http://www.w3.org/2000/svg" xmlns:xlink="http://www.w3.org/1999/xlink" height="211.5" preserveAspectRatio="xMidYMid meet" version="1.1" viewBox="99.0 106.7 227.2 211.5" width="227.2" zoomAndPan="magnify">
 <g id="surface1">
  <g id="change1_1"><path d="m285.61 165.72c0.68 0.74 0.64 1.89-0.1 2.58l-129.2 119.92c-0.74 0.69-1.89 0.64-2.58-0.09l-54.027-58.22c-0.687-0.73-0.644-1.89 0.094-2.57l129.19-119.93c0.74-0.68 1.9-0.64 2.58 0.1l54.04 58.21" fill="#63a335"/></g>
  <g id="change2_1"><path d="m274.12 166.86c0.57 0.61 0.49 1.61-0.17 2.22l-116 107.67c-0.66 0.62-1.66 0.62-2.22 0.01l-44.55-47.99c-0.56-0.61-0.48-1.6 0.18-2.21l116-107.67c0.66-0.62 1.65-0.62 2.22-0.01l44.54 47.98" fill="#7fcb4a"/></g>
  <g id="change1_2"><path d="m209.43 182.24c8.61 9.27 8.07 23.76-1.2 32.36s-23.76 8.06-32.36-1.21c-8.6-9.26-8.06-23.75 1.2-32.35 9.27-8.6 23.76-8.06 32.36 1.2" fill="#63a335"/></g>
  <g id="change1_3"><path d="m111.18 228.77l12.07 13.01c7.8-7.23 8.25-19.41 1.02-27.21l-12.91 11.99c-0.66 0.61-0.74 1.6-0.18 2.21" fill="#63a335"/></g>
  <g id="change3_1"><path d="m157.85 276.84l13.01-12.07c-7.24-7.79-19.41-8.25-27.21-1.01l11.99 12.9c0.61 0.67 1.6 0.75 2.21 0.18" fill="#70b646"/></g>
  <g id="change1_4"><path d="m229.58 118.88l12.07 13c-7.79 7.23-19.97 6.78-27.2-1.01l12.91-11.98c0.66-0.62 1.65-0.62 2.22-0.01" fill="#63a335"/></g>
  <g id="change1_5"><path d="m274.04 168.99l-13 12.07c-7.24-7.79-6.78-19.97 1.01-27.2l11.98 12.91c0.62 0.66 0.62 1.66 0.01 2.22" fill="#63a335"/></g>
  <g id="change3_2"><path d="m325.91 237.7c0.28 0.96-0.27 1.98-1.25 2.25l-169.39 48.78c-0.96 0.27-1.97-0.28-2.25-1.25l-21.98-76.32c-0.28-0.97 0.28-1.98 1.25-2.26l169.39-48.78c0.97-0.28 1.98 0.28 2.26 1.25l21.97 76.33" fill="#70b646"/></g>
  <g id="change4_1"><path d="m315.15 233.54c0.23 0.8-0.29 1.64-1.16 1.89l-152.08 43.8c-0.87 0.25-1.76-0.2-1.99-1l-18.12-62.92c-0.23-0.79 0.29-1.65 1.16-1.9l152.09-43.79c0.86-0.24 1.75 0.2 1.99 1l18.11 62.92" fill="#8dd260"/></g>
  <g id="change3_3"><path d="m250.48 218.09c3.5 12.15-3.52 24.84-15.67 28.34s-24.83-3.52-28.33-15.67 3.51-24.84 15.66-28.34c12.15-3.49 24.84 3.52 28.34 15.67" fill="#70b646"/></g>
  <g id="change3_4"><path d="m141.8 215.31l4.91 17.05c10.22-2.93 16.11-13.6 13.18-23.82l-16.93 4.87c-0.87 0.25-1.39 1.11-1.16 1.9" fill="#70b646"/></g>
  <g id="change3_5"><path d="m161.78 279.26l17.05-4.91c-2.94-10.21-13.6-16.11-23.82-13.17l4.87 16.93c0.25 0.86 1.1 1.38 1.9 1.15" fill="#70b646"/></g>
  <g id="change3_6"><path d="m297.04 170.62l4.91 17.05c-10.22 2.94-20.89-2.96-23.83-13.17l16.93-4.88c0.86-0.24 1.75 0.2 1.99 1" fill="#70b646"/></g>
  <g id="change3_7"><path d="m314.12 235.4l-17.05 4.91c-2.94-10.22 2.96-20.88 13.17-23.83l4.87 16.93c0.25 0.87-0.19 1.76-0.99 1.99" fill="#70b646"/></g>
  <g id="change5_1"><path d="m248.38 258.76c0 32.87-26.64 59.51-59.51 59.51-32.86 0-59.51-26.64-59.51-59.51s26.65-59.51 59.51-59.51c32.87 0 59.51 26.64 59.51 59.51" fill="#f68f34"/></g>
  <g id="change6_1"><path d="m235 258.76c0 25.47-20.65 46.13-46.13 46.13-25.47 0-46.12-20.66-46.12-46.13s20.65-46.13 46.12-46.13c25.48 0 46.13 20.66 46.13 46.13" fill="#fabb34"/></g>
  <path d="m2042.8 1820.6s-8.5 98.6-138.3 108.3c-103.5 7.7-165.4-28.8-176.1-97.9 0 0-14.7-98.6 46.8-130.5 72.8-37.6 273.9-42.4 276-176.2 0 0 8.3-118.9-157.2-118.9 0 0-159.6-4.3-167.9 95.5" fill="none" stroke="#f68f34" stroke-linecap="round" stroke-miterlimit="10" stroke-width="76.436" transform="matrix(.1 0 0 -.1 0 425.2)"/>
  <path d="m1819.8 2014.7v-91.3" fill="none" stroke="#f68f34" stroke-linecap="round" stroke-miterlimit="10" stroke-width="76.436" transform="matrix(.1 0 0 -.1 0 425.2)"/>
  <path d="m1936.6 2014.7v-91.3" fill="none" stroke="#f68f34" stroke-linecap="round" stroke-miterlimit="10" stroke-width="76.436" transform="matrix(.1 0 0 -.1 0 425.2)"/>
  <path d="m1830.3 1405.4v-91.4" fill="none" stroke="#f68f34" stroke-linecap="round" stroke-miterlimit="10" stroke-width="76.436" transform="matrix(.1 0 0 -.1 0 425.2)"/>
  <path d="m1947.1 1405.4v-91.4" fill="none" stroke="#f68f34" stroke-linecap="round" stroke-miterlimit="10" stroke-width="76.436" transform="matrix(.1 0 0 -.1 0 425.2)"/>
 </g>
</svg>